<svg xmlns="http://www.w3.org/2000/svg" viewBox="0 0 24 24"><g fill="none" stroke="#303c42" stroke-linecap="round" stroke-linejoin="round" data-name="&lt;Group&gt;"><path d="m1 3.89 7.8 6.4a1.26 1.26 0 0 0 1.39 0h0L18 3.89" data-name="&lt;Path&gt;"/><path d="M18.5 10.5V5A1.5 1.5 0 0 0 17 3.5H2A1.5 1.5 0 0 0 .5 5v10A1.5 1.5 0 0 0 2 16.5h11.6" data-name="&lt;Path&gt;"/><circle cx="18.5" cy="15.5" r="2" data-name="&lt;Path&gt;"/><path d="M21 19.83a5 5 0 1 1 2.5-4.33v.5a1.5 1.5 0 0 1-3 0v-2" data-name="&lt;Path&gt;"/></g></svg>